<?xml version="1.0" encoding="utf-8"?>
<!-- Generator: Adobe Illustrator 26.0.2, SVG Export Plug-In . SVG Version: 6.00 Build 0)  -->
<svg version="1.1" id="Слой_1" xmlns="http://www.w3.org/2000/svg" xmlns:xlink="http://www.w3.org/1999/xlink" x="0px" y="0px"
	 viewBox="0 0 115.4 114" style="enable-background:new 0 0 115.4 114;" xml:space="preserve">
<style type="text/css">
	.st0{clip-path:url(#SVGID_00000134953529124458215470000003889444497607449516_);}
	.st1{clip-path:url(#SVGID_00000067945988424351846650000015365999372894188722_);}
	.st2{clip-path:url(#SVGID_00000069374323469047742510000006094326923868404377_);}
	.st3{fill:#FFFAFA;}
	.st4{clip-path:url(#SVGID_00000055682594408421706740000002924470178370575015_);}
	.st5{clip-path:url(#SVGID_00000114053637268882828060000003005328486170040206_);}
	.st6{clip-path:url(#SVGID_00000062886393789133404990000003957040332877032356_);}
	.st7{clip-path:url(#SVGID_00000021104220826058067920000016315283803265219717_);}
	.st8{clip-path:url(#SVGID_00000003816773578666382040000017676943653429249714_);}
	.st9{clip-path:url(#SVGID_00000053526872762460928310000010422916241048079258_);}
	.st10{clip-path:url(#SVGID_00000009585946077981525560000012004870671914540184_);}
	.st11{clip-path:url(#SVGID_00000166653906769261682800000007961324574919654564_);}
	.st12{clip-path:url(#SVGID_00000018953990375070724910000014657514550616727443_);}
	.st13{clip-path:url(#SVGID_00000049922981209185496740000013472898877915869365_);}
	.st14{clip-path:url(#SVGID_00000142862984038817324950000014078285264902621326_);}
	.st15{clip-path:url(#SVGID_00000061443219553369909750000016596072838017412259_);}
</style>
<g>
	<defs>
		<rect id="SVGID_1_" x="-0.4" y="0.7" width="113.3" height="113.3"/>
	</defs>
	<clipPath id="SVGID_00000005959557109108079420000009335935800177505921_">
		<use xlink:href="#SVGID_1_"  style="overflow:visible;"/>
	</clipPath>
	<g style="clip-path:url(#SVGID_00000005959557109108079420000009335935800177505921_);">
		<g>
			<defs>
				
					<rect id="SVGID_00000050623189977111188950000012245501030176157099_" x="3.4" y="4.8" transform="matrix(0.1431 -0.9897 0.9897 0.1431 -8.773 104.425)" width="105" height="105"/>
			</defs>
			<clipPath id="SVGID_00000102511430612324399060000018007062102691964325_">
				<use xlink:href="#SVGID_00000050623189977111188950000012245501030176157099_"  style="overflow:visible;"/>
			</clipPath>
			<g style="clip-path:url(#SVGID_00000102511430612324399060000018007062102691964325_);">
				<g>
					<defs>
						
							<rect id="SVGID_00000131364581525793153330000005794063221655225484_" x="3.4" y="4.8" transform="matrix(0.1431 -0.9897 0.9897 0.1431 -8.773 104.425)" width="105" height="105"/>
					</defs>
					<clipPath id="SVGID_00000075851275169010498640000009323487003815555728_">
						<use xlink:href="#SVGID_00000131364581525793153330000005794063221655225484_"  style="overflow:visible;"/>
					</clipPath>
					<g style="clip-path:url(#SVGID_00000075851275169010498640000009323487003815555728_);">
						<path class="st3" d="M83.3,65.7c-4.7-0.7-9.4,0-13.4,1.9c-1.1-3-1.8-6-1.4-8.7c0.3-2.4,1.8-5.1,3.7-7.7
							c3.3,2.9,7.6,5,12.3,5.7c13.1,1.9,25.3-7.2,27.2-20.4c1.9-13.1-7.3-25.3-20.4-27.2C78.3,7.5,66,16.6,64.1,29.7
							c-0.7,4.8,0.1,9.6,2.1,13.7c-2.9,1.1-5.8,1.7-8.4,1.4c-2.6-0.4-5.4-1.8-7.9-3.7c3.1-3.4,5.1-7.7,5.8-12.5
							c1.9-13.1-7.3-25.3-20.4-27.2S10,8.5,8.1,21.6C6.2,34.7,15.4,47,28.5,48.9c4.8,0.7,9.6-0.1,13.8-2.1c1.1,3,1.7,6,1.3,8.6
							c-0.4,2.8-1.8,5.5-3.9,8c-3.4-3.1-7.7-5.1-12.5-5.8C14.1,55.7,1.9,64.8,0,78c-1.9,13.1,7.2,25.3,20.4,27.2
							c13.1,1.9,25.3-7.3,27.2-20.4c0.7-4.9-0.1-9.9-2.2-14c3-1,6-1.6,8.9-1.2c2.8,0.4,5.5,1.7,7.9,3.6c-3.2,3.4-5.4,7.9-6.1,12.8
							c-1.9,13.1,7.2,25.3,20.4,27.2c13.1,1.9,25.3-7.2,27.2-20.4C105.6,79.8,96.4,67.6,83.3,65.7z M11.5,22.1
							C13.1,10.8,23.6,2.9,35,4.5s19.2,12.2,17.6,23.6C51,39.3,40.5,47.3,29.1,45.7C17.7,44,9.8,33.5,11.5,22.1z M20.8,101.9
							C9.6,100.2,1.6,89.7,3.2,78.3C4.9,67,15.4,59.1,26.8,60.7S46,72.9,44.4,84.2C42.7,95.6,32.2,103.5,20.8,101.9z M91,12.7
							c11.3,1.6,19.2,12.2,17.6,23.6C107,47.5,96.4,55.5,85,53.9c-11.4-1.6-19.2-12.2-17.6-23.5C69.1,18.9,79.6,11.1,91,12.7z
							 M76.9,110c-11.3-1.6-19.2-12.2-17.6-23.6C61,75.1,71.5,67.2,82.9,68.8c11.4,1.6,19.2,12.2,17.6,23.5
							C98.7,103.7,88.2,111.6,76.9,110z"/>
					</g>
				</g>
			</g>
		</g>
	</g>
</g>
<g>
	<defs>
		<rect id="SVGID_00000129169985125456562140000009754016960207674772_" x="66.3" y="72.7" width="26.7" height="26.7"/>
	</defs>
	<clipPath id="SVGID_00000011010916686161487790000006629771339984238511_">
		<use xlink:href="#SVGID_00000129169985125456562140000009754016960207674772_"  style="overflow:visible;"/>
	</clipPath>
	<g style="clip-path:url(#SVGID_00000011010916686161487790000006629771339984238511_);">
		<g>
			<defs>
				
					<rect id="SVGID_00000041294335605421064920000005195457798173803936_" x="3.4" y="4.8" transform="matrix(0.1431 -0.9897 0.9897 0.1431 -8.773 104.425)" width="105" height="105"/>
			</defs>
			<clipPath id="SVGID_00000142861875395776676240000015403775736781808558_">
				<use xlink:href="#SVGID_00000041294335605421064920000005195457798173803936_"  style="overflow:visible;"/>
			</clipPath>
			<g style="clip-path:url(#SVGID_00000142861875395776676240000015403775736781808558_);">
				<g>
					<defs>
						
							<rect id="SVGID_00000000216016450775157880000011379931136317543816_" x="3.4" y="4.8" transform="matrix(0.1431 -0.9897 0.9897 0.1431 -8.773 104.425)" width="105" height="105"/>
					</defs>
					<clipPath id="SVGID_00000052101918501737294300000014990710631312185768_">
						<use xlink:href="#SVGID_00000000216016450775157880000011379931136317543816_"  style="overflow:visible;"/>
					</clipPath>
					<g style="clip-path:url(#SVGID_00000052101918501737294300000014990710631312185768_);">
						<path class="st3" d="M88.8,80l-9,3.6c0,0-4-4.6-7.3-10.3c-2.1,1-4.1,2.5-5.8,4.1c4.7,4.9,7.7,10.2,7.7,10.2l-6,7.6
							c-1.6,1.9,0.9,4.5,2.9,3l19.6-14.5C92.8,82.1,91.1,79,88.8,80z"/>
					</g>
				</g>
			</g>
		</g>
	</g>
</g>
<g>
	<defs>
		<rect id="SVGID_00000036218636013599476590000017863228372928522428_" x="71.6" y="20.7" width="26.7" height="26.7"/>
	</defs>
	<clipPath id="SVGID_00000052816005069622880580000000826293323376697013_">
		<use xlink:href="#SVGID_00000036218636013599476590000017863228372928522428_"  style="overflow:visible;"/>
	</clipPath>
	<g style="clip-path:url(#SVGID_00000052816005069622880580000000826293323376697013_);">
		<g>
			<defs>
				
					<rect id="SVGID_00000092429273721214524290000009252373452169179038_" x="3.4" y="4.8" transform="matrix(0.1431 -0.9897 0.9897 0.1431 -8.773 104.425)" width="105" height="105"/>
			</defs>
			<clipPath id="SVGID_00000031917279188986098860000013478773579362800045_">
				<use xlink:href="#SVGID_00000092429273721214524290000009252373452169179038_"  style="overflow:visible;"/>
			</clipPath>
			<g style="clip-path:url(#SVGID_00000031917279188986098860000013478773579362800045_);">
				<g>
					<defs>
						
							<rect id="SVGID_00000101799518669888864340000007143088045516412338_" x="3.4" y="4.8" transform="matrix(0.1431 -0.9897 0.9897 0.1431 -8.773 104.425)" width="105" height="105"/>
					</defs>
					<clipPath id="SVGID_00000132790385490535374650000015786499191071153811_">
						<use xlink:href="#SVGID_00000101799518669888864340000007143088045516412338_"  style="overflow:visible;"/>
					</clipPath>
					<g style="clip-path:url(#SVGID_00000132790385490535374650000015786499191071153811_);">
						<path class="st3" d="M76.3,46.6c3.6-3.7,7.7-6.9,10.2-8.7l7.6,6c1.9,1.6,4.5-0.9,3-2.9L82.5,21.7c-1.5-2-4.6-0.2-3.6,2.1
							l3.7,9.1c-2.3,2-6.3,5.2-10.8,7.8C73,43,74.5,44.9,76.3,46.6z"/>
					</g>
				</g>
			</g>
		</g>
	</g>
</g>
<g>
	<defs>
		<rect id="SVGID_00000098183970131794178710000007315031304635884185_" x="19.6" y="14" width="26.7" height="28"/>
	</defs>
	<clipPath id="SVGID_00000033348434841748737050000014651661482713746576_">
		<use xlink:href="#SVGID_00000098183970131794178710000007315031304635884185_"  style="overflow:visible;"/>
	</clipPath>
	<g style="clip-path:url(#SVGID_00000033348434841748737050000014651661482713746576_);">
		<g>
			<defs>
				
					<rect id="SVGID_00000015344131398187947550000006161807609377287305_" x="3.4" y="4.8" transform="matrix(0.1431 -0.9897 0.9897 0.1431 -8.773 104.425)" width="105" height="105"/>
			</defs>
			<clipPath id="SVGID_00000095335497503147311730000016824174379804228237_">
				<use xlink:href="#SVGID_00000015344131398187947550000006161807609377287305_"  style="overflow:visible;"/>
			</clipPath>
			<g style="clip-path:url(#SVGID_00000095335497503147311730000016824174379804228237_);">
				<g>
					<defs>
						
							<rect id="SVGID_00000008136210521583917590000000994910090750680755_" x="3.4" y="4.8" transform="matrix(0.1431 -0.9897 0.9897 0.1431 -8.773 104.425)" width="105" height="105"/>
					</defs>
					<clipPath id="SVGID_00000003078084098349773640000007760353523299776397_">
						<use xlink:href="#SVGID_00000008136210521583917590000000994910090750680755_"  style="overflow:visible;"/>
					</clipPath>
					<g style="clip-path:url(#SVGID_00000003078084098349773640000007760353523299776397_);">
						<path class="st3" d="M36.6,26.1l6-7.7c1.6-1.9-0.9-4.5-2.9-3L20.7,29.8c-2,1.5-0.2,4.5,2.1,3.6l9.1-3.7
							c1.9,2.4,5.1,6.6,7.7,11.4c2.2-1.1,4-2.5,5.7-4.2C41.5,33,38.3,28.7,36.6,26.1z"/>
					</g>
				</g>
			</g>
		</g>
	</g>
</g>
<g>
	<defs>
		<rect id="SVGID_00000010288562171276194150000004451517940044852149_" x="12.9" y="67.3" width="28" height="26.7"/>
	</defs>
	<clipPath id="SVGID_00000160187931090962622810000002504495073796261796_">
		<use xlink:href="#SVGID_00000010288562171276194150000004451517940044852149_"  style="overflow:visible;"/>
	</clipPath>
	<g style="clip-path:url(#SVGID_00000160187931090962622810000002504495073796261796_);">
		<g>
			<defs>
				
					<rect id="SVGID_00000160190425284016443600000011608664228846197436_" x="3.4" y="4.8" transform="matrix(0.1431 -0.9897 0.9897 0.1431 -8.773 104.425)" width="105" height="105"/>
			</defs>
			<clipPath id="SVGID_00000112607477796100403420000011905652242952948662_">
				<use xlink:href="#SVGID_00000160190425284016443600000011608664228846197436_"  style="overflow:visible;"/>
			</clipPath>
			<g style="clip-path:url(#SVGID_00000112607477796100403420000011905652242952948662_);">
				<g>
					<defs>
						
							<rect id="SVGID_00000050620470008779798070000000688533728897569681_" x="3.4" y="4.8" transform="matrix(0.1431 -0.9897 0.9897 0.1431 -8.773 104.425)" width="105" height="105"/>
					</defs>
					<clipPath id="SVGID_00000150781081723222320970000017312457578127895215_">
						<use xlink:href="#SVGID_00000050620470008779798070000000688533728897569681_"  style="overflow:visible;"/>
					</clipPath>
					<g style="clip-path:url(#SVGID_00000150781081723222320970000017312457578127895215_);">
						<path class="st3" d="M39.7,73.4c-1.1-2-2.5-3.9-4.2-5.4c-5,4.7-10.6,7.7-10.6,7.7l-7.6-6c-1.9-1.6-4.5,0.9-3,2.9L29,92
							c1.5,2,4.5,0.2,3.6-2.1l-3.6-9C28.9,81,33.6,76.7,39.7,73.4z"/>
					</g>
				</g>
			</g>
		</g>
	</g>
</g>
</svg>
