<?xml version="1.0" encoding="utf-8"?>
<!-- Generator: Adobe Illustrator 26.0.2, SVG Export Plug-In . SVG Version: 6.00 Build 0)  -->
<svg version="1.1" id="Слой_1" xmlns="http://www.w3.org/2000/svg" xmlns:xlink="http://www.w3.org/1999/xlink" x="0px" y="0px"
	 viewBox="0 0 447.4 245.9" style="enable-background:new 0 0 447.4 245.9;" xml:space="preserve">
<style type="text/css">
	.st0{clip-path:url(#SVGID_00000034071849305641377980000016345819712293227151_);}
	.st1{fill-rule:evenodd;clip-rule:evenodd;fill:#FFFAFA;}
	.st2{clip-path:url(#SVGID_00000103968226037962563830000002349249491227338143_);}
	.st3{clip-path:url(#SVGID_00000134223137606408677820000012064380456045974170_);}
	.st4{clip-path:url(#SVGID_00000075150590361569797980000015385439323237437066_);}
	.st5{fill:#FFFAFA;}
	.st6{clip-path:url(#SVGID_00000129924179078496103320000006639059657149270181_);}
	.st7{clip-path:url(#SVGID_00000152246497954258088970000004928094351959580832_);}
	.st8{clip-path:url(#SVGID_00000147933849650081086910000000195629871466011583_);}
	.st9{clip-path:url(#SVGID_00000154397098942333606240000015538013645348522412_);}
	.st10{clip-path:url(#SVGID_00000035499178145535645430000004254805393973612462_);}
	.st11{clip-path:url(#SVGID_00000125573016360241966650000014619528952009788553_);}
	.st12{clip-path:url(#SVGID_00000159457840091770221760000009804203359351438989_);}
	.st13{clip-path:url(#SVGID_00000180335875712412180030000003111871146667026363_);}
	.st14{clip-path:url(#SVGID_00000110439790510821594700000015783284575796600213_);}
	.st15{clip-path:url(#SVGID_00000163795231826904930460000017617108528640542121_);}
	.st16{clip-path:url(#SVGID_00000044895817002644435380000017844509980347611784_);}
	.st17{clip-path:url(#SVGID_00000132047160317538791130000013158113806953599163_);}
	.st18{clip-path:url(#SVGID_00000109722817464889033950000008301373344241075902_);}
	.st19{clip-path:url(#SVGID_00000085242243878121208550000009915507532938490785_);}
</style>
<g>
	<defs>
		<rect id="SVGID_1_" y="46.6" width="169" height="162"/>
	</defs>
	<clipPath id="SVGID_00000107590771233877777570000013869532257182897571_">
		<use xlink:href="#SVGID_1_"  style="overflow:visible;"/>
	</clipPath>
	<g style="clip-path:url(#SVGID_00000107590771233877777570000013869532257182897571_);">
		<path class="st1" d="M34.7,46.6l97.1,97.4c17.3-3.6,30.4-19.1,30.4-37.5V84.8c0-21-17.2-38.3-38.2-38.3H34.7z M0,105.5
			l102.8,103.1H169L66.2,105.5H0z M68.7,208.6l-56.6-56.8v56.8H68.7z"/>
	</g>
</g>
<g>
	<defs>
		<rect id="SVGID_00000166677238567065272610000016210953969091253120_" x="178.6" width="113.3" height="113.3"/>
	</defs>
	<clipPath id="SVGID_00000088843577134104541130000013143623614348522171_">
		<use xlink:href="#SVGID_00000166677238567065272610000016210953969091253120_"  style="overflow:visible;"/>
	</clipPath>
	<g style="clip-path:url(#SVGID_00000088843577134104541130000013143623614348522171_);">
		<g>
			<defs>
				
					<rect id="SVGID_00000034799620047072342760000008565391753513528248_" x="182.4" y="4.1" transform="matrix(0.1431 -0.9897 0.9897 0.1431 145.2446 280.9715)" width="105" height="105"/>
			</defs>
			<clipPath id="SVGID_00000100347720587873889710000018286246840822340778_">
				<use xlink:href="#SVGID_00000034799620047072342760000008565391753513528248_"  style="overflow:visible;"/>
			</clipPath>
			<g style="clip-path:url(#SVGID_00000100347720587873889710000018286246840822340778_);">
				<g>
					<defs>
						
							<rect id="SVGID_00000157989633028814855000000008192846989291008916_" x="182.4" y="4.1" transform="matrix(0.1431 -0.9897 0.9897 0.1431 145.2446 280.9715)" width="105" height="105"/>
					</defs>
					<clipPath id="SVGID_00000088104443916567988990000009617045562839687822_">
						<use xlink:href="#SVGID_00000157989633028814855000000008192846989291008916_"  style="overflow:visible;"/>
					</clipPath>
					<g style="clip-path:url(#SVGID_00000088104443916567988990000009617045562839687822_);">
						<path class="st5" d="M262.3,65c-4.7-0.7-9.4,0-13.4,1.9c-1.1-3-1.8-6-1.4-8.7c0.3-2.4,1.8-5.1,3.7-7.7c3.3,2.9,7.6,5,12.3,5.7
							c13.1,1.9,25.3-7.2,27.2-20.4c1.9-13.1-7.3-25.3-20.4-27.2C257.2,6.8,245,15.9,243.1,29c-0.7,4.8,0.1,9.6,2.1,13.7
							c-2.9,1.1-5.8,1.7-8.4,1.4c-2.6-0.4-5.4-1.8-7.9-3.7c3.1-3.4,5.1-7.7,5.8-12.5c1.9-13.1-7.3-25.3-20.4-27.2
							C201.2-1.3,189,7.8,187.1,21c-1.9,13.1,7.2,25.3,20.4,27.2c4.8,0.7,9.6-0.1,13.8-2.1c1.1,3,1.7,6,1.3,8.6
							c-0.4,2.8-1.8,5.5-3.9,8c-3.4-3.1-7.7-5.1-12.5-5.8c-13.1-1.9-25.3,7.2-27.2,20.4c-1.9,13.1,7.2,25.3,20.4,27.2
							c13.1,1.9,25.3-7.3,27.2-20.4c0.7-4.9-0.1-9.9-2.2-14c3-1,6-1.6,8.9-1.2c2.8,0.4,5.5,1.7,7.9,3.6c-3.2,3.4-5.4,7.9-6.1,12.8
							c-1.9,13.1,7.2,25.3,20.4,27.2c13.1,1.9,25.3-7.2,27.2-20.4C284.5,79.2,275.4,66.9,262.3,65z M190.4,21.4
							c1.6-11.3,12.2-19.2,23.6-17.6c11.4,1.6,19.2,12.2,17.6,23.6C230,38.7,219.4,46.6,208,45C196.7,43.3,188.8,32.8,190.4,21.4z
							 M199.8,101.2c-11.3-1.6-19.2-12.2-17.6-23.6c1.6-11.3,12.2-19.3,23.6-17.6c11.4,1.6,19.2,12.2,17.6,23.6
							C221.7,95,211.2,102.8,199.8,101.2z M270,12c11.3,1.6,19.2,12.2,17.6,23.6c-1.6,11.3-12.2,19.2-23.5,17.6
							c-11.4-1.6-19.2-12.2-17.6-23.5C248,18.3,258.6,10.4,270,12z M255.9,109.3c-11.3-1.6-19.2-12.2-17.6-23.6
							c1.6-11.3,12.2-19.2,23.6-17.6c11.4,1.6,19.2,12.2,17.6,23.5C277.7,103.1,267.2,110.9,255.9,109.3z"/>
					</g>
				</g>
			</g>
		</g>
	</g>
</g>
<g>
	<defs>
		<rect id="SVGID_00000066483710426142674170000005911233687901130143_" x="245.2" y="72" width="26.7" height="26.7"/>
	</defs>
	<clipPath id="SVGID_00000133503757829915635010000014104455745574661017_">
		<use xlink:href="#SVGID_00000066483710426142674170000005911233687901130143_"  style="overflow:visible;"/>
	</clipPath>
	<g style="clip-path:url(#SVGID_00000133503757829915635010000014104455745574661017_);">
		<g>
			<defs>
				
					<rect id="SVGID_00000173855226949720108530000005801831189332973470_" x="182.4" y="4.1" transform="matrix(0.1431 -0.9897 0.9897 0.1431 145.2446 280.9715)" width="105" height="105"/>
			</defs>
			<clipPath id="SVGID_00000076586670023725727190000004877489989359236277_">
				<use xlink:href="#SVGID_00000173855226949720108530000005801831189332973470_"  style="overflow:visible;"/>
			</clipPath>
			<g style="clip-path:url(#SVGID_00000076586670023725727190000004877489989359236277_);">
				<g>
					<defs>
						
							<rect id="SVGID_00000032648632019179163040000014951948578187658120_" x="182.4" y="4.1" transform="matrix(0.1431 -0.9897 0.9897 0.1431 145.2446 280.9715)" width="105" height="105"/>
					</defs>
					<clipPath id="SVGID_00000116943500663465012450000003673880054568071837_">
						<use xlink:href="#SVGID_00000032648632019179163040000014951948578187658120_"  style="overflow:visible;"/>
					</clipPath>
					<g style="clip-path:url(#SVGID_00000116943500663465012450000003673880054568071837_);">
						<path class="st5" d="M267.7,79.3l-9,3.6c0,0-4-4.6-7.3-10.3c-2.1,1-4.1,2.5-5.8,4.1c4.7,4.9,7.7,10.2,7.7,10.2l-6,7.6
							c-1.6,1.9,0.9,4.5,2.9,3l19.6-14.5C271.8,81.4,270.1,78.4,267.7,79.3z"/>
					</g>
				</g>
			</g>
		</g>
	</g>
</g>
<g>
	<defs>
		<rect id="SVGID_00000175312802176957952990000006245219757795094438_" x="250.6" y="20" width="26.7" height="26.7"/>
	</defs>
	<clipPath id="SVGID_00000125586795867242515750000008091724586024901049_">
		<use xlink:href="#SVGID_00000175312802176957952990000006245219757795094438_"  style="overflow:visible;"/>
	</clipPath>
	<g style="clip-path:url(#SVGID_00000125586795867242515750000008091724586024901049_);">
		<g>
			<defs>
				
					<rect id="SVGID_00000036251662216266041370000016529020119050055576_" x="182.4" y="4.1" transform="matrix(0.1431 -0.9897 0.9897 0.1431 145.2446 280.9715)" width="105" height="105"/>
			</defs>
			<clipPath id="SVGID_00000160168879849027462490000012672336107022389432_">
				<use xlink:href="#SVGID_00000036251662216266041370000016529020119050055576_"  style="overflow:visible;"/>
			</clipPath>
			<g style="clip-path:url(#SVGID_00000160168879849027462490000012672336107022389432_);">
				<g>
					<defs>
						
							<rect id="SVGID_00000106846152387166331230000006368957188126329998_" x="182.4" y="4.1" transform="matrix(0.1431 -0.9897 0.9897 0.1431 145.2446 280.9715)" width="105" height="105"/>
					</defs>
					<clipPath id="SVGID_00000171718825933387183830000011363796674614682553_">
						<use xlink:href="#SVGID_00000106846152387166331230000006368957188126329998_"  style="overflow:visible;"/>
					</clipPath>
					<g style="clip-path:url(#SVGID_00000171718825933387183830000011363796674614682553_);">
						<path class="st5" d="M255.3,46c3.6-3.7,7.7-6.9,10.2-8.7l7.6,6c1.9,1.6,4.5-0.9,3-2.9L261.5,21c-1.5-2-4.6-0.2-3.6,2.1
							l3.7,9.1c-2.3,2-6.3,5.2-10.8,7.8C252,42.3,253.4,44.3,255.3,46z"/>
					</g>
				</g>
			</g>
		</g>
	</g>
</g>
<g>
	<defs>
		<rect id="SVGID_00000069383494384341209680000008372247754582305711_" x="198.6" y="13.3" width="26.7" height="28"/>
	</defs>
	<clipPath id="SVGID_00000154418496584358344410000007266559227620147901_">
		<use xlink:href="#SVGID_00000069383494384341209680000008372247754582305711_"  style="overflow:visible;"/>
	</clipPath>
	<g style="clip-path:url(#SVGID_00000154418496584358344410000007266559227620147901_);">
		<g>
			<defs>
				
					<rect id="SVGID_00000124122160659380571050000000170389598734059159_" x="182.4" y="4.1" transform="matrix(0.1431 -0.9897 0.9897 0.1431 145.2446 280.9715)" width="105" height="105"/>
			</defs>
			<clipPath id="SVGID_00000042734704718867401220000000746378501288114329_">
				<use xlink:href="#SVGID_00000124122160659380571050000000170389598734059159_"  style="overflow:visible;"/>
			</clipPath>
			<g style="clip-path:url(#SVGID_00000042734704718867401220000000746378501288114329_);">
				<g>
					<defs>
						
							<rect id="SVGID_00000014603472357336336730000008486698231575946143_" x="182.4" y="4.1" transform="matrix(0.1431 -0.9897 0.9897 0.1431 145.2446 280.9715)" width="105" height="105"/>
					</defs>
					<clipPath id="SVGID_00000011709790309791101360000002493084738258180015_">
						<use xlink:href="#SVGID_00000014603472357336336730000008486698231575946143_"  style="overflow:visible;"/>
					</clipPath>
					<g style="clip-path:url(#SVGID_00000011709790309791101360000002493084738258180015_);">
						<path class="st5" d="M215.6,25.4l6-7.7c1.6-1.9-0.9-4.5-2.9-3l-19.1,14.4c-2,1.5-0.2,4.5,2.1,3.6l9.1-3.7
							c1.9,2.4,5.1,6.6,7.7,11.4c2.2-1.1,4-2.5,5.7-4.2C220.4,32.3,217.3,28,215.6,25.4z"/>
					</g>
				</g>
			</g>
		</g>
	</g>
</g>
<g>
	<defs>
		<rect id="SVGID_00000035503263081954470610000002806892354357224605_" x="191.9" y="66.7" width="28" height="26.7"/>
	</defs>
	<clipPath id="SVGID_00000172401289367954961770000006800539110566192555_">
		<use xlink:href="#SVGID_00000035503263081954470610000002806892354357224605_"  style="overflow:visible;"/>
	</clipPath>
	<g style="clip-path:url(#SVGID_00000172401289367954961770000006800539110566192555_);">
		<g>
			<defs>
				
					<rect id="SVGID_00000154393458012078155830000011293234439735115189_" x="182.4" y="4.1" transform="matrix(0.1431 -0.9897 0.9897 0.1431 145.2446 280.9715)" width="105" height="105"/>
			</defs>
			<clipPath id="SVGID_00000161622774236828538580000016397647721880216250_">
				<use xlink:href="#SVGID_00000154393458012078155830000011293234439735115189_"  style="overflow:visible;"/>
			</clipPath>
			<g style="clip-path:url(#SVGID_00000161622774236828538580000016397647721880216250_);">
				<g>
					<defs>
						
							<rect id="SVGID_00000086679817350365392280000002984642416924228231_" x="182.4" y="4.1" transform="matrix(0.1431 -0.9897 0.9897 0.1431 145.2446 280.9715)" width="105" height="105"/>
					</defs>
					<clipPath id="SVGID_00000149351971531372111650000016901149824671744386_">
						<use xlink:href="#SVGID_00000086679817350365392280000002984642416924228231_"  style="overflow:visible;"/>
					</clipPath>
					<g style="clip-path:url(#SVGID_00000149351971531372111650000016901149824671744386_);">
						<path class="st5" d="M218.7,72.7c-1.1-2-2.5-3.9-4.2-5.4c-5,4.7-10.6,7.7-10.6,7.7l-7.6-6c-1.9-1.6-4.5,0.9-3,2.9l14.6,19.5
							c1.5,2,4.5,0.2,3.6-2.1l-3.6-9C207.9,80.3,212.6,76,218.7,72.7z"/>
					</g>
				</g>
			</g>
		</g>
	</g>
</g>
<g>
	<defs>
		<rect id="SVGID_00000014595554673317233730000008810295601977147816_" x="266.6" y="122.7" width="130.7" height="123.2"/>
	</defs>
	<clipPath id="SVGID_00000132798721765579315240000013004410823090099843_">
		<use xlink:href="#SVGID_00000014595554673317233730000008810295601977147816_"  style="overflow:visible;"/>
	</clipPath>
	<g style="clip-path:url(#SVGID_00000132798721765579315240000013004410823090099843_);">
		<path class="st5" d="M376.4,204l19.5-81.2h-42l-17.9,72.8c-2.6,14.2-17.9,20.8-28.7,21h-29.8l-10.1,29.3h62.5
			C345.5,245.9,368.2,238,376.4,204"/>
	</g>
</g>
<g>
	<defs>
		<rect id="SVGID_00000176746810786432068660000007335210181208725146_" x="182.4" y="92.9" width="265" height="116.5"/>
	</defs>
	<clipPath id="SVGID_00000073715648619251074470000014036583961848936109_">
		<use xlink:href="#SVGID_00000176746810786432068660000007335210181208725146_"  style="overflow:visible;"/>
	</clipPath>
	<g style="clip-path:url(#SVGID_00000073715648619251074470000014036583961848936109_);">
		<path class="st5" d="M288.3,175.4L308,92.9h43.2l-22.5,93.8c-4.3,18.1-17.8,22.5-30.2,22.5H199c-11,0-20.2-4.7-15.2-25.6l9-37.4
			c4.5-19,18.7-23.3,28.9-23.3h69.5l-5.6,23.4H250c-5.2,0-8.1,1.1-9.5,7.2l-5.7,23.9c-2,8.6,1,9.2,7.3,9.2h32.5
			C280.5,186.5,285.7,186.2,288.3,175.4 M405.4,122.8l-20.3,86.3h42l20.3-86.3H405.4z"/>
	</g>
</g>
</svg>
